<?xml version="1.0" encoding="utf-8"?>
<!DOCTYPE svg PUBLIC "-//W3C//DTD SVG 1.1//EN" "http://www.w3.org/Graphics/SVG/1.1/DTD/svg11.dtd">
<svg version="1.1" id="Ñëîé_1" xmlns="http://www.w3.org/2000/svg" xmlns:xlink="http://www.w3.org/1999/xlink" x="0px" y="0px"
	 width="50px" height="50px" viewBox="0 0 50 50" enable-background="new 0 0 50 50" xml:space="preserve">
<g>
	<path fill="#F36B26" d="M46.26,19.591c0.384,0.116,0.749,0.246,1.035,0.31c-1.862-5.327-7.1-9.978-15.407-9.882
		c-8.185,0.094-12.791,6.285-14.114,9.969c0.51-0.428,2.15-3.229,3.26-4.285c2.86-2.721,6.571-5.271,13.382-4.473
		C41.138,12.018,45.167,17.066,46.26,19.591z"/>
	<path fill="#F36B26" d="M29.473,32.799c1.341-0.714,2.285-2.649,1.931-4.966c-0.537-3.503-3.124-7.098-9.116-7.714
		c-5.377-0.553-11.028,2.903-12.081,7.228c0,0,1.875-2.649,5.081-3.897c3.207-1.247,10.087-2.927,13.903,3.305
		C30.583,29.029,29.822,32.28,29.473,32.799z"/>
	<path fill="#F36B26" d="M27.576,10.755c-1.462,0.491-2.803,1.095-4.563,2.643c-1.014,0.892-2.396,2.801-3.063,4.1
		c-1.689,3.296-2.411,8.783,0.471,12.692c2.105,2.856,5.052,3.543,6.893,3.335c2.394-0.27,3.822-1.818,4.17-4.338
		c-0.261,2.685-1.006,3.611-1.776,4.392c-2.829,2.868-8.699,1.606-11.1-1.913c-1.515-2.221-2.337-4.157-1.93-8.776
		c0.148-1.688,0.732-3.645,1.806-5.402c0.991-1.624,2.468-3.339,3.831-4.276C24.199,11.913,26.107,11.128,27.576,10.755z"/>
	<path fill="#F36B26" d="M15.556,38.945c0.55-0.298,2.024-1.366,1.931-3.391c-0.062-1.333-0.93-3.594-3.399-4.491
		c-2.762-1.005-6.29-0.021-8.301,1.839c-1.556,1.438-2.701,3.637-3.082,5.694c0.294,0.269,0.676,0.624,0.926,0.785
		c0.907-3.036,1.558-4.134,3.306-5.761c1.521-1.417,4.93-2.193,7.156-0.758c2.041,1.316,3.194,4.618,1.346,5.801
		c0,0-1.395,0.501-2.117,0.545C14.547,39.674,15.006,39.244,15.556,38.945z"/>
	<path fill="#F36B26" d="M16.363,21.026c-1.168,0.224-8.284,3.612-8.909,10.221c-0.578,6.102,2.962,8.917,5.883,8.727
		c2.922-0.19,3.732-2.292,3.919-2.938c-0.886,1.586-4.164,2.744-6.294,0.136c-2.13-2.609-1.676-6.19-1.244-8.237
		C10.726,24.154,15.314,21.497,16.363,21.026z"/>
</g>
</svg>
