<?xml version="1.0" encoding="utf-8"?>
<!DOCTYPE svg PUBLIC "-//W3C//DTD SVG 1.1//EN" "http://www.w3.org/Graphics/SVG/1.1/DTD/svg11.dtd">
<svg version="1.1" id="Ñëîé_1" xmlns="http://www.w3.org/2000/svg" xmlns:xlink="http://www.w3.org/1999/xlink" x="0px" y="0px"
	 width="50px" height="50px" viewBox="0 0 50 50" enable-background="new 0 0 50 50" xml:space="preserve">
<g>
	<g>
		<path fill="#70D6F9" d="M46.621,11.764c0.325,0.139,0.633,0.29,0.879,0.376c-1.105-4.872-5.245-9.481-12.558-10.229
			c-7.2-0.734-11.869,4.248-13.401,7.352c0.492-0.323,1.615-1.878,2.694-2.696c2.786-2.105,6.71-4.353,12.617-2.971
			C42.684,4.961,45.911,9.433,46.621,11.764z"/>
		<path fill="#70D6F9" d="M31.08,2.129c-1.333,0.286-2.573,0.683-4.275,1.868c-0.98,0.681-2.384,2.221-3.101,3.298
			c-1.815,2.727-2.997,7.478-0.854,11.204c1.564,2.72,4.087,3.617,5.726,3.619c2.129,0.002,3.542-1.217,4.098-3.397
			c-0.497,2.333-1.246,3.074-2,3.683c-2.775,2.237-8.082,0.578-9.841-2.755c-1.107-2.103-1.637-3.887-0.82-7.908
			c0.301-1.468,1.009-3.129,2.129-4.566c1.033-1.33,2.775-2.725,4.069-3.413C27.995,2.81,29.75,2.309,31.08,2.129z"/>
	</g>
	<path fill="#70D6F9" d="M32.739,17.523c-0.123-3.133-2.037-6.552-7.242-7.69c-2.524-0.554-5.827-0.165-8.974,1.522
		c-1.815,0.976-2.217,1.576-3.208,2.413c-0.973,0.824-1.799,2.008-2.371,3.149c-1.195,2.384-1.101,4.524-0.358,7.082
		c0.734,2.518,1.652,5.515-1.604,6.957c-1.45,0.639-2.36,1.386-2.883,2.004C2.482,37.208,0.404,44.461,5.73,48.15
		c0.068,0.044,0.145-0.048,0.079-0.101c-4.39-3.45-2.12-9.083,0.517-12.562c1.771-2.333,3.248-2.76,4.983-3.669
		c1.246-0.655,2.45-2.16,2.252-5.166c-0.286-4.353-1.881-5.396-0.226-9.896c1.54-2.647,3.522-3.838,5.348-4.322
		c2.944-0.773,9.16-1.564,11.891,4.295c0.998,2.138,0.33,4.544-0.028,4.966C31.794,21.201,32.82,19.593,32.739,17.523z"/>
</g>
</svg>
