<?xml version="1.0" encoding="utf-8"?>
<!-- Generator: Adobe Illustrator 16.0.0, SVG Export Plug-In . SVG Version: 6.00 Build 0)  -->
<!DOCTYPE svg PUBLIC "-//W3C//DTD SVG 1.1//EN" "http://www.w3.org/Graphics/SVG/1.1/DTD/svg11.dtd">
<svg version="1.1" id="Ñëîé_1" xmlns="http://www.w3.org/2000/svg" xmlns:xlink="http://www.w3.org/1999/xlink" x="0px" y="0px"
	 width="50px" height="50px" viewBox="0 0 50 50" enable-background="new 0 0 50 50" xml:space="preserve">
<g>
	<path fill="#EFEFEF" d="M16.238,44.042c0.284-0.007,1.806-1.145,2.691-2.522c1.215-1.89,2.322-4.596,0.435-8.175
		c-1.837-3.219-2.602-5.141-2.709-7.505c-0.01-0.222-0.695-0.386-0.695-0.615c-1.442,1.335-1.229,5.613,0.445,9.512
		C19.708,42.437,15.806,43.628,16.238,44.042z"/>
	<path fill="#EFEFEF" d="M15.327,31.208c-0.263-4.621,2.144-8.006,8.667-8.295c5.662-0.251,8.954-4.168,9.097-7.148
		c-1.282,1.429-3.557,3.176-6.398,3.802c-3.571,0.785-5.844-0.536-9.117,2.058C14.368,24.166,15.01,29.879,15.327,31.208z"/>
	<path fill="#EFEFEF" d="M31.516,19.135c0.702-0.928,2.618-2.726,0.907-6.949c-0.544-1.343-1.105-2.044-1.215-2.372
		C31.1,8.802,30.702,6.813,30.58,5.958c1.711,1.252,3.082,3.037,3.813,4.73c1.003,2.318,0.732,4.512-0.576,6.947
		c-0.897,1.671-4.232,3.688-4.834,3.876C29.379,21.25,30.909,19.937,31.516,19.135z"/>
</g>
</svg>
